<svg width="32" height="32" viewBox="0 0 32 32" fill="none" xmlns="http://www.w3.org/2000/svg">
<path fill-rule="evenodd" clip-rule="evenodd" d="M31 30.501V16.7175L31.1464 16.8638C31.3417 17.0589 31.6583 17.0589 31.8536 16.8638C32.0488 16.6687 32.0488 16.3523 31.8536 16.1572L30.8622 15.1665L17.8525 0.820646C16.8602 -0.273548 15.1398 -0.273549 14.1475 0.820645L1.13776 15.1665L0.146447 16.1572C-0.0488155 16.3523 -0.0488155 16.6687 0.146447 16.8638C0.341709 17.0589 0.658291 17.0589 0.853553 16.8638L1 16.7175V30.501C1 31.3289 1.67157 32 2.5 32H29.5C30.3284 32 31 31.3289 31 30.501ZM14.8885 1.49171C15.4839 0.835194 16.5161 0.835194 17.1115 1.49171L30 15.7039V30.501C30 30.777 29.7761 31.0007 29.5 31.0007H20.5V21.0075C20.5 20.1796 19.8284 19.5085 19 19.5085H13C12.1716 19.5085 11.5 20.1796 11.5 21.0075V31.0007H2.5C2.22386 31.0007 2 30.777 2 30.501V15.7039L14.8885 1.49171ZM12.5 31.0007H19.5V21.0075C19.5 20.7315 19.2761 20.5078 19 20.5078H13C12.7239 20.5078 12.5 20.7315 12.5 21.0075V31.0007Z" fill="current"/>
</svg>
