<svg width="32" height="32" viewBox="0 0 32 32" fill="none" xmlns="http://www.w3.org/2000/svg">
<path fill-rule="evenodd" clip-rule="evenodd" d="M28.5 6.02173C29.8807 6.02173 31 4.90244 31 3.52173C31 2.14102 29.8807 1.02173 28.5 1.02173C27.1193 1.02173 26 2.14102 26 3.52173C26 4.90244 27.1193 6.02173 28.5 6.02173ZM28.5 7.02173C30.433 7.02173 32 5.45473 32 3.52173C32 1.58873 30.433 0.0217285 28.5 0.0217285C26.567 0.0217285 25 1.58873 25 3.52173C25 5.45473 26.567 7.02173 28.5 7.02173Z" fill="current"/>
<path fill-rule="evenodd" clip-rule="evenodd" d="M2 1.02173H26.0505C25.7576 1.30879 25.5149 1.64693 25.3368 2.02173H2C1.44772 2.02173 1 2.46944 1 3.02173V24.0217C1 24.574 1.44772 25.0217 2 25.0217H12V26.0217H2C0.89543 26.0217 0 25.1263 0 24.0217V3.02173C0 1.91716 0.89543 1.02173 2 1.02173ZM20 26.0217H29C30.1046 26.0217 31 25.1263 31 24.0217V5.97122C30.7129 6.26416 30.3748 6.50686 30 6.68491V24.0217C30 24.574 29.5523 25.0217 29 25.0217H20V26.0217Z" fill="current"/>
<path fill-rule="evenodd" clip-rule="evenodd" d="M11.7059 25.1174C11.9292 24.9549 12.2419 25.0043 12.4044 25.2276L16 30.1716L19.5956 25.2276C19.758 25.0043 20.0708 24.9549 20.2941 25.1174C20.5174 25.2798 20.5668 25.5925 20.4044 25.8158L16 31.8718L11.5956 25.8158C11.4332 25.5925 11.4826 25.2798 11.7059 25.1174Z" fill="current"/>
</svg>
